Coordinates
version=1
nRows=12
nColumns=38
inDegrees=yes

Units are S.I. units (second, meters, Newtons, ...)
Angles are in degrees.

endheader
time	pelvis_tilt	pelvis_list	pelvis_rotation	pelvis_tx	pelvis_ty	pelvis_tz	hip_flexion_r	hip_adduction_r	hip_rotation_r	knee_angle_r	ankle_angle_r	subtalar_angle_r	mtp_angle_r	hip_flexion_l	hip_adduction_l	hip_rotation_l	knee_angle_l	ankle_angle_l	subtalar_angle_l	mtp_angle_l	lumbar_extension	lumbar_bending	lumbar_rotation	arm_flex_r	arm_add_r	arm_rot_r	elbow_flex_r	pro_sup_r	wrist_flex_r	wrist_dev_r	arm_flex_l	arm_add_l	arm_rot_l	elbow_flex_l	pro_sup_l	wrist_flex_l	wrist_dev_l
      1.85000000	     -0.26494946	      8.05474650	      0.12676924	      0.89011750	      0.90508992	     -0.21009556	     22.93279977	     -9.89413266	     -3.52436719	    -71.57988675	     -1.22101885	    -12.93505280	      0.00000000	     12.98711500	     13.18117126	     -0.34778340	    -20.59904664	      7.75968318	    -12.13437547	      0.00000000	     -3.99193132	     -6.96395011	      0.74006201	      3.81702813	     -9.19776093	     48.98555669	     22.20761996	     44.95651943	      0.00000000	      0.00000000	     -5.71338040	    -12.67243795	     25.81932570	     29.79778975	     44.95651943	      0.00000000	      0.00000000
      1.86000000	     -0.12008840	      7.74719611	      0.17910543	      0.90305995	      0.90710552	     -0.21020596	     24.31446988	     -9.34447017	     -3.61408837	    -70.69295433	     -0.38764382	    -13.12945551	      0.00000000	     11.28102881	     12.90396590	      0.01634651	    -19.47700151	      8.30891274	    -11.91543058	      0.00000000	     -4.22128462	     -6.58661522	      0.45868592	      2.87107738	     -9.17614714	     48.99635074	     21.91747426	     44.95687975	      0.00000000	      0.00000000	     -4.45453580	    -13.01772700	     25.73321076	     30.38211578	     44.95687975	      0.00000000	      0.00000000
      1.87000000	      0.06017423	      7.49506872	      0.18725992	      0.91631008	      0.90889541	     -0.21029250	     25.52342662	     -8.89574916	     -3.77947855	    -69.46348446	      0.35288892	    -13.34233329	      0.00000000	      9.28072125	     12.66771884	      0.43329391	    -17.88973940	      8.74107125	    -11.74792918	      0.00000000	     -4.35049237	     -6.27520298	      0.18270662	      1.85671852	     -9.16053475	     48.95784065	     21.52877643	     44.95723483	      0.00000000	      0.00000000	     -3.23165753	    -13.41632786	     25.69478743	     31.18832857	     44.95723483	      0.00000000	      0.00000000
      1.88000000	      0.26439743	      7.34897030	      0.25464030	      0.92957631	      0.91047352	     -0.21053952	     26.53133892	     -8.49472775	     -3.86106557	    -67.83021413	      1.01766463	    -13.66308621	      0.00000000	      7.16323686	     12.68917305	      1.75646518	    -16.10021673	      8.43096761	    -13.22186210	      0.00000000	     -4.54611018	     -6.09014913	     -0.18005916	      1.00048138	     -8.71600937	     48.12071556	     20.03830247	     44.96046853	      0.00000000	      0.00000000	     -3.05456996	    -14.50620401	     25.12285643	     35.52063121	     44.96046853	      0.00000000	      0.00000000
      1.89000000	      0.41021523	      7.18577555	      0.38853968	      0.94308685	      0.91155560	     -0.21078670	     27.47238389	     -8.18341006	     -4.15963893	    -65.92254155	      1.53720807	    -13.93018144	      0.00000000	      5.31746889	     12.51197740	      2.07902470	    -14.78485538	      8.89843268	    -12.96024999	      0.00000000	     -4.61448358	     -5.88956278	     -0.51707125	     -0.09290854	     -8.73803602	     48.06046162	     19.76821594	     44.96093662	      0.00000000	      0.00000000	     -1.91851362	    -14.85358797	     24.70662796	     36.32252571	     44.96093662	      0.00000000	      0.00000000
      1.90000000	      0.26909071	      7.05195288	      0.65362349	      0.95640397	      0.91189880	     -0.21118499	     28.58646319	     -7.94303200	     -4.51817833	    -63.66684554	      1.83245919	    -14.22964978	      0.00000000	      3.87910060	     12.36582436	      2.54887606	    -13.61106728	      9.32718381	    -12.65379687	      0.00000000	     -4.33971273	     -5.74119171	     -1.03457148	     -1.08859512	     -8.72676728	     48.02374088	     19.52300982	     44.96115665	      0.00000000	      0.00000000	     -0.91323583	    -15.38955993	     24.43821149	     36.96445553	     44.96115665	      0.00000000	      0.00000000
      1.91000000	      0.26694430	      6.97067095	      0.94045601	      0.96975762	      0.91218174	     -0.21162048	     29.45521645	     -7.81419094	     -4.92563234	    -61.15204276	      2.21725510	    -14.39390053	      0.00000000	      2.27673882	     12.25791742	      3.15880372	    -12.42420261	      9.64291963	    -12.50339032	      0.00000000	     -4.25662244	     -5.65094482	     -1.48288762	     -2.21442807	     -8.71987614	     47.91779975	     19.16945282	     44.96144883	      0.00000000	      0.00000000	      0.10207478	    -15.87100894	     24.16879521	     38.04232052	     44.96144883	      0.00000000	      0.00000000
      1.92000000	      0.37434675	      7.02199380	      1.23058898	      0.98326250	      0.91209442	     -0.21205692	     30.03305540	     -7.83306195	     -5.32905506	    -58.31537591	      2.65932877	    -14.44110782	      0.00000000	      0.08491485	     12.42468252	      5.26797359	    -10.34073166	      8.76838357	    -15.16539811	      0.00000000	     -4.35604339	     -5.79525080	     -2.29061125	     -3.21396129	     -8.35647705	     44.33103651	     18.97937521	     44.97072155	      0.00000000	      0.00000000	     -3.37897411	    -15.47801177	     11.09651918	     50.64229120	     44.97072155	      0.00000000	      0.00000000
      1.93000000	      0.29487788	      6.96359713	      1.60423069	      0.99665742	      0.91143387	     -0.21259504	     30.80267789	     -7.91310043	     -6.20580106	    -55.31859337	      2.09023296	    -15.27446138	      0.00000000	     -1.40482300	     12.27702525	      5.69437907	     -9.18946664	      9.27303615	    -14.86004062	      0.00000000	     -4.18863641	     -5.73932835	     -2.83684175	     -4.28835876	     -8.38175567	     44.22999643	     18.71228674	     44.97112571	      0.00000000	      0.00000000	     -2.48578897	    -15.97784356	     11.05799113	     51.66947094	     44.97112571	      0.00000000	      0.00000000
      1.94000000	      0.19745920	      6.98324452	      1.98649541	      1.01008340	      0.91024129	     -0.21299617	     31.12180191	     -7.76725297	     -6.28118515	    -51.71923969	      2.83687244	    -14.95605456	      0.00000000	     -3.00672107	     12.26585737	      6.82879468	     -7.84500328	      9.17740854	    -15.90862513	      0.00000000	     -4.02281286	     -5.83722070	     -3.54699816	     -5.21547665	     -8.26888913	     43.26750214	     18.33715325	     44.97357039	      0.00000000	      0.00000000	     -2.76593870	    -16.81741861	     10.05425441	     55.80071436	     44.97357039	      0.00000000	      0.00000000
      1.95000000	      0.08016748	      7.00411838	      2.37695763	      1.02351694	      0.90879015	     -0.21350263	     31.51827865	     -7.85894443	     -6.96459690	    -48.01902811	      2.86218114	    -14.95439500	      0.00000000	     -4.17010056	     12.21248977	      7.34877910	     -7.30783400	      9.85250521	    -15.74168655	      0.00000000	     -3.83346714	     -5.88574893	     -4.10679200	     -6.22614976	     -8.31293117	     43.13809057	     18.11692314	     44.97391715	      0.00000000	      0.00000000	     -1.92471547	    -17.26017460	      9.69419766	     56.77297307	     44.97391715	      0.00000000	      0.00000000
      1.96000000	     -0.03968193	      7.09372205	      2.76137820	      1.03680301	      0.90702211	     -0.21390695	     32.30193510	     -8.36775690	     -8.95523150	    -44.52886949	      1.31666886	    -16.25347716	      0.00000000	     -5.25607043	     12.25663851	      8.22708716	     -6.88822691	     10.28085603	    -16.33458166	      0.00000000	     -3.73042969	     -6.08059996	     -4.91634536	     -7.09142339	     -8.27079257	     41.24015947	     18.21094792	     44.97807721	      0.00000000	      0.00000000	     -2.75053339	    -17.30223643	      6.00849820	     61.95709560	     44.97807721	      0.00000000	      0.00000000
